<svg width="21" height="22" viewBox="0 0 21 22" fill="none"
    xmlns="http://www.w3.org/2000/svg">
    <path fill-rule="evenodd" clip-rule="evenodd" d="M5.2102 2.36156C6.47178 1.01587 8.19359 0.25 9.99999 0.25C10.3823 0.25 10.7612 0.284343 11.1331 0.351388C11.5407 0.424886 11.8116 0.814925 11.7381 1.22257C11.6646 1.63021 11.2746 1.90108 10.8669 1.82759C10.5822 1.77626 10.2924 1.75 9.99999 1.75C8.6238 1.75 7.29336 2.33269 6.3045 3.38747C5.31411 4.44389 4.74999 5.88647 4.74999 7.4C4.74999 11.2361 3.97863 13.7558 3.16775 15.3415C2.99003 15.689 2.81102 15.9905 2.63885 16.25H9.97695C9.98467 16.2498 9.99241 16.2496 10.0002 16.2496H17.3613C17.1892 15.9901 17.0101 15.6887 16.8324 15.3411C16.2212 14.1459 15.6325 12.42 15.3796 9.99965C15.2802 9.04884 16.7827 8.99961 16.8726 9.85498C17.1087 12.1025 17.6495 13.6443 18.1679 14.6582C18.5132 15.3334 18.8519 15.781 19.0922 16.0516C19.2125 16.1871 19.3088 16.2788 19.3696 16.3328C19.4 16.3599 19.4215 16.3775 19.4329 16.3865L19.4416 16.3933C19.7027 16.5833 19.8131 16.9196 19.7146 17.2278C19.6154 17.5386 19.3265 17.7496 19.0002 17.7496H10.0232C10.0155 17.7499 10.0078 17.75 9.99999 17.75H0.999992C0.673666 17.75 0.38479 17.539 0.28553 17.2281C0.187118 16.9199 0.29749 16.5837 0.558565 16.3937L0.567288 16.3869C0.578633 16.3779 0.600216 16.3602 0.630625 16.3332C0.691417 16.2792 0.787637 16.1875 0.907982 16.052C1.14829 15.7814 1.48695 15.3338 1.83223 14.6585C2.52136 13.3109 3.24999 11.0306 3.24999 7.4C3.24999 5.51876 3.95015 3.70561 5.2102 2.36156ZM14.75 4C14.75 2.75736 15.7574 1.75 17 1.75C18.2426 1.75 19.25 2.75736 19.25 4C19.25 5.24264 18.2426 6.25 17 6.25C15.7574 6.25 14.75 5.24264 14.75 4ZM17 0.25C14.9289 0.25 13.25 1.92893 13.25 4C13.25 6.07107 14.9289 7.75 17 7.75C19.0711 7.75 20.75 6.07107 20.75 4C20.75 1.92893 19.0711 0.25 17 0.25ZM8.91876 19.6238C8.71092 19.2655 8.25198 19.1435 7.89368 19.3514C7.53539 19.5592 7.41342 20.0182 7.62126 20.3765C7.863 20.7932 8.20998 21.1391 8.62745 21.3796C9.04493 21.62 9.51824 21.7466 10 21.7466C10.4818 21.7466 10.9551 21.62 11.3726 21.3796C11.79 21.1391 12.137 20.7932 12.3788 20.3765C12.5866 20.0182 12.4646 19.5592 12.1063 19.3514C11.748 19.1435 11.2891 19.2655 11.0813 19.6238C10.9714 19.8132 10.8137 19.9705 10.6239 20.0798C10.4341 20.1891 10.219 20.2466 10 20.2466C9.78102 20.2466 9.56588 20.1891 9.37612 20.0798C9.18636 19.9705 9.02865 19.8132 8.91876 19.6238Z" fill="#292927"/>
</svg>
    