<svg width="16" height="20" viewBox="0 0 16 20" fill="none"
    xmlns="http://www.w3.org/2000/svg">
    <path fill-rule="evenodd" clip-rule="evenodd" d="M3 1.75C2.30964 1.75 1.75 2.30964 1.75 3V17.6263L6.51292 14.5644C7.41879 13.982 8.58121 13.982 9.48708 14.5644L14.25 17.6263V3C14.25 2.30964 13.6904 1.75 13 1.75H3ZM0.25 3C0.25 1.48122 1.48122 0.25 3 0.25H13C14.5188 0.25 15.75 1.48122 15.75 3V19C15.75 19.2744 15.6002 19.5268 15.3594 19.6583C15.1186 19.7898 14.8252 19.7792 14.5944 19.6309L8.67595 15.8261C8.26419 15.5614 7.73581 15.5614 7.32405 15.8261L1.40557 19.6309C1.17479 19.7792 0.881414 19.7898 0.640609 19.6583C0.399804 19.5268 0.25 19.2744 0.25 19V3Z" fill="#292927"/>
</svg>
    