<svg width="19" height="19" viewBox="0 0 19 19" fill="none"
    xmlns="http://www.w3.org/2000/svg">
    <path fill-rule="evenodd" clip-rule="evenodd" d="M0.25 15C0.25 15.4142 0.585787 15.75 1 15.75C1.41421 15.75 1.75 15.4142 1.75 15V1.75H15C15.4142 1.75 15.75 1.41421 15.75 1C15.75 0.585787 15.4142 0.25 15 0.25H1.6C0.854417 0.25 0.25 0.854415 0.25 1.6V15ZM17.25 4.75V13.9422L9.69264 11.2922C9.53634 11.2374 9.36629 11.2359 9.20904 11.2879L4.75 12.7621V4.75H17.25ZM18.75 4.6V14.9817C18.7503 14.9938 18.7503 15.0061 18.75 15.0183V17.4C18.75 18.1456 18.1456 18.75 17.4 18.75H4.6C3.85441 18.75 3.25 18.1456 3.25 17.4V13.8164C3.24976 13.8054 3.24976 13.7943 3.25 13.7834V4.6C3.25 3.85441 3.85442 3.25 4.6 3.25H17.4C18.1456 3.25 18.75 3.85442 18.75 4.6ZM9.43735 12.7923L17.25 15.5318V17.25H4.75V14.342L9.43735 12.7923ZM14.25 8.5C14.25 8.08579 13.9142 7.75 13.5 7.75C13.0858 7.75 12.75 8.08579 12.75 8.5C12.75 8.91421 13.0858 9.25 13.5 9.25C13.9142 9.25 14.25 8.91421 14.25 8.5ZM13.5 6.25C14.7426 6.25 15.75 7.25736 15.75 8.5C15.75 9.74264 14.7426 10.75 13.5 10.75C12.2574 10.75 11.25 9.74264 11.25 8.5C11.25 7.25736 12.2574 6.25 13.5 6.25Z" fill="#292927"/>
</svg>
    