<svg width="22" height="20" viewBox="0 0 22 20" fill="none"
    xmlns="http://www.w3.org/2000/svg">
    <path fill-rule="evenodd" clip-rule="evenodd" d="M3 1.75C2.30964 1.75 1.75 2.30964 1.75 3V15C1.75 15.6904 2.30964 16.25 3 16.25H9C9.41421 16.25 9.75 16.5858 9.75 17C9.75 17.4142 9.41421 17.75 9 17.75H3C1.48122 17.75 0.25 16.5188 0.25 15V3C0.25 1.48122 1.48122 0.25 3 0.25H19C20.5188 0.25 21.75 1.48122 21.75 3V9.85714C21.75 10.2714 21.4142 10.6071 21 10.6071C20.5858 10.6071 20.25 10.2714 20.25 9.85714V3C20.25 2.30964 19.6904 1.75 19 1.75H3ZM5.35687 4.61413C5.56998 4.25894 6.03068 4.14377 6.38586 4.35688L11 7.12536L15.6141 4.35688C15.9693 4.14377 16.43 4.25894 16.6431 4.61413C16.8562 4.96931 16.741 5.43001 16.3859 5.64312L11.3859 8.64312C11.1484 8.78563 10.8516 8.78563 10.6141 8.64312L5.61412 5.64312C5.25893 5.43001 5.14376 4.96931 5.35687 4.61413ZM15.677 11.5336C15.9717 11.2425 15.9747 10.7677 15.6836 10.473C15.3925 10.1783 14.9177 10.1753 14.623 10.4664L11.473 13.5775C11.3303 13.7184 11.25 13.9106 11.25 14.1111C11.25 14.3116 11.3303 14.5038 11.473 14.6447L14.623 17.7558C14.9177 18.0469 15.3925 18.044 15.6836 17.7492C15.9747 17.4545 15.9717 16.9797 15.677 16.6886L13.8267 14.8611H18.3C19.0211 14.8611 19.4958 15.101 19.7898 15.4004C20.0918 15.708 20.25 16.1257 20.25 16.5556C20.25 16.9854 20.0918 17.4031 19.7898 17.7107C19.4958 18.0101 19.0211 18.25 18.3 18.25C17.8858 18.25 17.55 18.5858 17.55 19C17.55 19.4142 17.8858 19.75 18.3 19.75C19.3789 19.75 20.2542 19.3787 20.8602 18.7616C21.4582 18.1525 21.75 17.3479 21.75 16.5556C21.75 15.7632 21.4582 14.9587 20.8602 14.3496C20.2542 13.7324 19.3789 13.3611 18.3 13.3611H13.8267L15.677 11.5336Z" fill="#292927"/>
</svg>
    