<svg width="32" height="32" viewBox="0 0 32 32" fill="none"
    xmlns="http://www.w3.org/2000/svg">
    <path opacity="0.4" d="M16 29.3333C23.3638 29.3333 29.3333 23.3638 29.3333 16C29.3333 8.63619 23.3638 2.66666 16 2.66666C8.63616 2.66666 2.66663 8.63619 2.66663 16C2.66663 23.3638 8.63616 29.3333 16 29.3333Z" fill="#292D32"/>
    <path d="M16 17.3333C15.2533 17.3333 14.6666 16.7333 14.6666 16C14.6666 15.2667 15.2666 14.6667 16 14.6667C16.7333 14.6667 17.3333 15.2667 17.3333 16C17.3333 16.7333 16.7466 17.3333 16 17.3333Z" fill="#292D32"/>
    <path d="M21.3333 17.3333C20.5867 17.3333 20 16.7333 20 16C20 15.2667 20.6 14.6667 21.3333 14.6667C22.0667 14.6667 22.6667 15.2667 22.6667 16C22.6667 16.7333 22.08 17.3333 21.3333 17.3333Z" fill="#292D32"/>
    <path d="M10.6667 17.3333C9.92004 17.3333 9.33337 16.7333 9.33337 16C9.33337 15.2667 9.93337 14.6667 10.6667 14.6667C11.4 14.6667 12 15.2667 12 16C12 16.7333 11.4134 17.3333 10.6667 17.3333Z" fill="#292D32"/>
</svg>
    