<svg width="24" height="19" viewBox="0 0 24 19" fill="none"
    xmlns="http://www.w3.org/2000/svg">
    <path fill-rule="evenodd" clip-rule="evenodd" d="M15.75 4C15.75 2.75736 16.7574 1.75 18 1.75C19.2426 1.75 20.25 2.75736 20.25 4C20.25 5.24264 19.2426 6.25 18 6.25C16.7574 6.25 15.75 5.24264 15.75 4ZM20.4815 6.81156C21.2594 6.12445 21.75 5.11952 21.75 4C21.75 1.92893 20.0711 0.25 18 0.25C15.9289 0.25 14.25 1.92893 14.25 4C14.25 5.11952 14.7406 6.12445 15.5185 6.81157C13.9845 7.54657 12.8271 8.94184 12.4144 10.6293C11.9326 10.2948 11.4111 10.0136 10.8583 9.79412C12.0073 8.92715 12.75 7.55031 12.75 6C12.75 3.37665 10.6234 1.25 8 1.25C5.37665 1.25 3.25 3.37665 3.25 6C3.25 7.55031 3.99271 8.92715 5.14172 9.79412C2.27612 10.9317 0.25 13.7293 0.25 17V18C0.25 18.4142 0.585786 18.75 1 18.75C1.41421 18.75 1.75 18.4142 1.75 18V17C1.75 13.5482 4.54822 10.75 8 10.75C11.4518 10.75 14.25 13.5482 14.25 17V18C14.25 18.4142 14.5858 18.75 15 18.75C15.4142 18.75 15.75 18.4142 15.75 18V17C15.75 15.0031 14.9947 13.1825 13.7542 11.8085C13.8544 9.55014 15.717 7.75 18 7.75C20.3472 7.75 22.25 9.65279 22.25 12V12.5C22.25 12.9142 22.5858 13.25 23 13.25C23.4142 13.25 23.75 12.9142 23.75 12.5V12C23.75 9.71303 22.4149 7.73791 20.4815 6.81156ZM8 2.75C6.20507 2.75 4.75 4.20507 4.75 6C4.75 7.79493 6.20507 9.25 8 9.25C9.79493 9.25 11.25 7.79493 11.25 6C11.25 4.20507 9.79493 2.75 8 2.75Z" fill="#292927"/>
</svg>
    