<svg width="41" height="42" viewBox="0 0 41 42" fill="none"
    xmlns="http://www.w3.org/2000/svg">
    <path d="M20.5 3.91666C16.0241 3.91666 12.3854 7.55541 12.3854 12.0312C12.3854 16.4217 15.8191 19.975 20.295 20.1287C20.4316 20.1117 20.5683 20.1117 20.6708 20.1287C20.705 20.1287 20.722 20.1287 20.7562 20.1287C20.7733 20.1287 20.7733 20.1287 20.7904 20.1287C25.1637 19.975 28.5975 16.4217 28.6145 12.0312C28.6145 7.55541 24.9758 3.91666 20.5 3.91666Z" fill="white"/>
    <path opacity="0.4" d="M29.1784 24.69C24.4121 21.5125 16.6392 21.5125 11.8388 24.69C9.66922 26.125 8.47339 28.0896 8.47339 30.1908C8.47339 32.2921 9.66922 34.2396 11.8217 35.6746C14.2134 37.2804 17.3567 38.0833 20.5001 38.0833C23.6434 38.0833 26.7867 37.2804 29.1784 35.6746C31.3309 34.2225 32.5267 32.275 32.5267 30.1566C32.5096 28.0725 31.3309 26.1079 29.1784 24.69Z" fill="white"/>
    <path d="M23.6262 31.3696H17.3908C16.7416 31.3696 16.212 30.84 16.212 30.1908C16.212 29.5417 16.7416 29.0121 17.3908 29.0121H23.6262C24.2754 29.0121 24.805 29.5417 24.805 30.1908C24.7879 30.84 24.2754 31.3696 23.6262 31.3696Z" fill="white"/>
</svg>
    