<svg width="24" height="24" viewBox="0 0 24 24" fill="none"
    xmlns="http://www.w3.org/2000/svg">
    <g opacity="0.5">
        <path fill-rule="evenodd" clip-rule="evenodd" d="M3.75 11C3.75 6.99594 6.99594 3.75 11 3.75C15.0041 3.75 18.25 6.99594 18.25 11C18.25 12.9988 17.4421 14.8074 16.1333 16.1197C14.82 17.4365 13.0057 18.25 11 18.25C6.99594 18.25 3.75 15.0041 3.75 11ZM11 2.25C6.16751 2.25 2.25 6.16751 2.25 11C2.25 15.8325 6.16751 19.75 11 19.75C13.1459 19.75 15.1124 18.9767 16.6342 17.6949L20.4697 21.5303C20.7626 21.8232 21.2374 21.8232 21.5303 21.5303C21.8232 21.2374 21.8232 20.7626 21.5303 20.4697L17.6949 16.6342C18.9767 15.1124 19.75 13.1459 19.75 11C19.75 6.16751 15.8325 2.25 11 2.25Z" fill="#292927"/>
    </g>
</svg>
    