<svg width="22" height="22" viewBox="0 0 22 22" fill="none"
    xmlns="http://www.w3.org/2000/svg">
    <path fill-rule="evenodd" clip-rule="evenodd" d="M9.98098 0.25C9.64028 0.25 9.34238 0.479642 9.25567 0.809124L8.7177 2.85337L6.84921 3.64101L5.49844 2.43959C5.20166 2.17562 4.75053 2.18881 4.46967 2.46967L2.46967 4.46967C2.19791 4.74143 2.17556 5.17464 2.4179 5.47293L3.59144 6.91735L2.82402 8.80418L0.829552 9.26962C0.490123 9.34884 0.25 9.65145 0.25 10V12C0.25 12.3381 0.476272 12.6345 0.802475 12.7235L2.8517 13.283L3.64057 15.1544L2.44016 16.5009C2.17563 16.7976 2.18858 17.2492 2.46967 17.5303L4.46967 19.5303C4.74173 19.8024 5.17554 19.8245 5.4738 19.5814L6.9188 18.4038L8.76234 19.1622L9.27283 21.1836C9.35693 21.5167 9.65652 21.75 10 21.75H12C12.3433 21.75 12.6428 21.5169 12.727 21.1841L13.2392 19.1621L15.1369 18.3762C15.3307 18.5361 15.5687 18.7399 15.8008 18.9419C15.989 19.1057 16.1639 19.2601 16.2918 19.3735C16.3557 19.4302 16.4077 19.4766 16.4437 19.5087L16.4993 19.5584C16.7958 19.8243 17.2486 19.812 17.5303 19.5303L19.5303 17.5303C19.8063 17.2543 19.8245 16.8127 19.5721 16.515L18.3839 15.1135L19.164 13.2299L21.1887 12.703C21.5192 12.617 21.7499 12.3187 21.7499 11.9772L21.75 10C21.75 9.65701 21.5173 9.35767 21.1848 9.27313L19.1715 8.76116L18.3925 6.88007L19.5727 5.48425C19.8245 5.18646 19.8061 4.74542 19.5303 4.46967L17.5303 2.46967C17.2535 2.19285 16.8104 2.17551 16.5127 2.42984L15.126 3.61496L13.1883 2.8181L12.6607 0.809469C12.5741 0.479818 12.2762 0.25 11.9353 0.25H9.98098ZM10.0744 3.592L10.5591 1.75H11.3569L11.8324 3.56027C11.8921 3.7877 12.055 3.97394 12.2725 4.06337L14.9795 5.17659C15.2397 5.28363 15.538 5.23595 15.752 5.05312L16.96 4.02071L17.9819 5.04253L16.952 6.26055C16.7708 6.47487 16.7244 6.77244 16.8318 7.03175L17.9294 9.68235C18.0199 9.90091 18.2083 10.064 18.4375 10.1223L20.25 10.5831L20.2499 11.3974L18.425 11.8722C18.1975 11.9314 18.0109 12.0939 17.9209 12.3111L16.823 14.9625C16.7155 15.2221 16.7621 15.5201 16.9438 15.7344L17.9812 16.9581L16.9688 17.9705C16.9101 17.919 16.8486 17.8653 16.7856 17.8105C16.4134 17.4865 15.9476 17.0886 15.6913 16.9054C15.4807 16.7549 15.2073 16.7236 14.9682 16.8226L12.3176 17.9203C12.0988 18.0109 11.9356 18.1995 11.8775 18.429L11.4163 20.25H10.5841L10.1242 18.4287C10.066 18.1983 9.9021 18.0091 9.68236 17.9187L7.07651 16.8467C6.82203 16.742 6.53067 16.7851 6.31736 16.9589L5.05132 17.9907L4.03111 16.9704L5.07559 15.7988C5.2682 15.5828 5.31929 15.2751 5.20686 15.0084L4.09222 12.3642C4.00277 12.152 3.82079 11.9926 3.59864 11.932L1.75 11.4273V10.5951L3.54295 10.1767C3.78003 10.1214 3.97551 9.95441 4.06724 9.72889L5.1481 7.07141C5.25121 6.81789 5.20804 6.52833 5.03546 6.31592L4.00862 5.05204L5.03013 4.03053L6.20597 5.07637C6.42202 5.26853 6.7293 5.31938 6.99574 5.20707L9.64041 4.09223C9.85484 4.00184 10.0152 3.81704 10.0744 3.592ZM8.75 11C8.75 9.75736 9.75736 8.75 11 8.75C12.2426 8.75 13.25 9.75736 13.25 11C13.25 12.2426 12.2426 13.25 11 13.25C9.75736 13.25 8.75 12.2426 8.75 11ZM11 7.25C8.92893 7.25 7.25 8.92893 7.25 11C7.25 13.0711 8.92893 14.75 11 14.75C13.0711 14.75 14.75 13.0711 14.75 11C14.75 8.92893 13.0711 7.25 11 7.25Z" fill="#292927"/>
</svg>
    