<svg width="20" height="20" viewBox="0 0 20 20" fill="none"
    xmlns="http://www.w3.org/2000/svg">
    <path fill-rule="evenodd" clip-rule="evenodd" d="M0.25 10C0.25 9.58579 0.585786 9.25 1 9.25H3.45943L6.28849 0.762829C6.39057 0.456573 6.67718 0.25 7 0.25C7.32282 0.25 7.60943 0.456573 7.71151 0.762829L13 16.6283L15.2885 9.76283C15.3906 9.45657 15.6772 9.25 16 9.25H19C19.4142 9.25 19.75 9.58579 19.75 10C19.75 10.4142 19.4142 10.75 19 10.75H16.5406L13.7115 19.2372C13.6094 19.5434 13.3228 19.75 13 19.75C12.6772 19.75 12.3906 19.5434 12.2885 19.2372L7 3.37171L4.71151 10.2372C4.60943 10.5434 4.32282 10.75 4 10.75H1C0.585786 10.75 0.25 10.4142 0.25 10Z" fill="#292927"/>
</svg>
    